<svg xmlns="http://www.w3.org/2000/svg" width="860" height="440" viewBox="0 0 860 440">
<rect width="100%" height="100%" fill="#FAFAF8"/>
<text x="80" y="30" font-family="IBM Plex Sans, Helvetica, Arial, sans-serif" font-size="18" font-weight="600" fill="#1a1a1a">R2 tip checkout p50 — HAMT vs SQL replay</text>
<text x="18" y="210.0" font-family="IBM Plex Sans, Helvetica, Arial, sans-serif" font-size="12" fill="#555" transform="rotate(-90 18,210.0)">p50</text>
<rect x="80" y="52" width="756" height="316" fill="#fff" stroke="#e5e5e5"/>
<line x1="80" y1="368.0" x2="836" y2="368.0" stroke="#eee"/>
<text x="72" y="372.0" text-anchor="end" font-family="IBM Plex Sans, Helvetica, Arial, sans-serif" font-size="11" fill="#666">4.3ms</text>
<line x1="80" y1="289.0" x2="836" y2="289.0" stroke="#eee"/>
<text x="72" y="293.0" text-anchor="end" font-family="IBM Plex Sans, Helvetica, Arial, sans-serif" font-size="11" fill="#666">43.3ms</text>
<line x1="80" y1="210.0" x2="836" y2="210.0" stroke="#eee"/>
<text x="72" y="214.0" text-anchor="end" font-family="IBM Plex Sans, Helvetica, Arial, sans-serif" font-size="11" fill="#666">436.8ms</text>
<line x1="80" y1="131.0" x2="836" y2="131.0" stroke="#eee"/>
<text x="72" y="135.0" text-anchor="end" font-family="IBM Plex Sans, Helvetica, Arial, sans-serif" font-size="11" fill="#666">4.4s</text>
<line x1="80" y1="52.0" x2="836" y2="52.0" stroke="#eee"/>
<text x="72" y="56.0" text-anchor="end" font-family="IBM Plex Sans, Helvetica, Arial, sans-serif" font-size="11" fill="#666">44.4s</text>
<rect x="102.7" y="368.0" width="49.7" height="0.0" fill="#0B6E4F" rx="2"/>
<rect x="154.3" y="307.4" width="49.7" height="60.6" fill="#3D5A80" rx="2"/>
<rect x="206.0" y="202.0" width="49.7" height="166.0" fill="#9B2226" rx="2"/>
<rect x="257.7" y="224.4" width="49.7" height="143.6" fill="#BB3E03" rx="2"/>
<text x="206.0" y="390" text-anchor="middle" font-family="IBM Plex Sans, Helvetica, Arial, sans-serif" font-size="12" fill="#444">10k commits</text>
<rect x="354.7" y="289.4" width="49.7" height="78.6" fill="#0B6E4F" rx="2"/>
<rect x="406.3" y="222.3" width="49.7" height="145.7" fill="#3D5A80" rx="2"/>
<rect x="458.0" y="128.8" width="49.7" height="239.2" fill="#9B2226" rx="2"/>
<rect x="509.7" y="157.9" width="49.7" height="210.1" fill="#BB3E03" rx="2"/>
<text x="458.0" y="390" text-anchor="middle" font-family="IBM Plex Sans, Helvetica, Arial, sans-serif" font-size="12" fill="#444">100k commits</text>
<rect x="606.7" y="272.7" width="49.7" height="95.3" fill="#0B6E4F" rx="2"/>
<rect x="658.3" y="121.2" width="49.7" height="246.8" fill="#3D5A80" rx="2"/>
<rect x="710.0" y="52.0" width="49.7" height="316.0" fill="#9B2226" rx="2"/>
<rect x="761.7" y="81.1" width="49.7" height="286.9" fill="#BB3E03" rx="2"/>
<text x="710.0" y="390" text-anchor="middle" font-family="IBM Plex Sans, Helvetica, Arial, sans-serif" font-size="12" fill="#444">1.0M commits</text>
<rect x="80" y="408" width="12" height="12" fill="#0B6E4F" rx="1"/>
<text x="98" y="418" font-family="IBM Plex Sans, Helvetica, Arial, sans-serif" font-size="12" fill="#333">epochs</text>
<rect x="170" y="408" width="12" height="12" fill="#3D5A80" rx="1"/>
<text x="188" y="418" font-family="IBM Plex Sans, Helvetica, Arial, sans-serif" font-size="12" fill="#333">sqlite</text>
<rect x="260" y="408" width="12" height="12" fill="#9B2226" rx="1"/>
<text x="278" y="418" font-family="IBM Plex Sans, Helvetica, Arial, sans-serif" font-size="12" fill="#333">postgres</text>
<rect x="350" y="408" width="12" height="12" fill="#BB3E03" rx="1"/>
<text x="368" y="418" font-family="IBM Plex Sans, Helvetica, Arial, sans-serif" font-size="12" fill="#333">mysql</text>
</svg>